# xmcd CD database file
#
# Track frame offsets:
#	150
#	27550
#	45335
#	67421
#	90651
#	131120
#
# Disc length: 1806 seconds
#
# Revision: 0
# Processed by: cddbd v1.5.1PL0 Copyright (c) Steve Scherf et al.
# Submitted via: CDex 1.51
#
DISCID=54070c06
DTITLE=Raptus - raptus
DYEAR=1900
DGENRE=Jazz
TTITLE0=Trilogie Octave
TTITLE1=Whisky
TTITLE2=Trilogie Louislinga
TTITLE3=Jazzi for Benoit
TTITLE4=Trilogie Sous globe
TTITLE5=Kedoi
EXTD=
EXTT0=
EXTT1=
EXTT2=
EXTT3=
EXTT4=
EXTT5=
PLAYORDER=
